<svg width="140" height="25" viewBox="0 0 140 25" fill="none" xmlns="http://www.w3.org/2000/svg">
<path d="M24.8775 1.888H30.7455L25.9215 24.676H18.9015C18.1575 22.108 17.5095 19.6 16.9575 17.152C16.4295 14.704 15.9255 12.088 15.4455 9.304H15.3735C14.8215 12.088 14.2695 14.704 13.7175 17.152C13.1895 19.6 12.5895 22.108 11.9175 24.676H4.89752L0.0735157 1.888H5.94152C6.30152 3.568 6.62552 5.212 6.91352 6.82C7.20152 8.428 7.47752 10.072 7.74152 11.752C8.02952 13.408 8.31752 15.208 8.60552 17.152H8.67752C9.03752 15.208 9.38552 13.408 9.72152 11.752C10.0575 10.072 10.4055 8.428 10.7655 6.82C11.1255 5.212 11.5095 3.568 11.9175 1.888H18.9015C19.4535 4.432 19.9935 6.976 20.5215 9.52C21.0735 12.064 21.6135 14.608 22.1415 17.152H22.2135C22.6695 14.608 23.1135 12.064 23.5455 9.52C23.9775 6.976 24.4215 4.432 24.8775 1.888ZM49.0552 24.1C48.3832 24.34 47.4472 24.556 46.2472 24.748C45.0712 24.916 43.6672 25 42.0352 25C39.9712 25 38.2072 24.736 36.7432 24.208C35.3032 23.656 34.2112 22.732 33.4672 21.436C32.7232 20.116 32.3512 18.292 32.3512 15.964C32.3512 12.796 33.0712 10.504 34.5112 9.088C35.9752 7.672 38.2312 6.964 41.2792 6.964C43.4632 6.964 45.1792 7.276 46.4272 7.9C47.6992 8.524 48.5992 9.412 49.1272 10.564C49.6792 11.692 49.9552 13.036 49.9552 14.596C49.9552 15.052 49.9312 15.544 49.8832 16.072C49.8592 16.6 49.7992 17.116 49.7032 17.62L49.5592 17.764H37.7152C37.8832 18.82 38.3752 19.516 39.1912 19.852C40.0312 20.188 41.3872 20.356 43.2592 20.356C44.5072 20.356 45.5392 20.332 46.3552 20.284C47.1952 20.212 48.0472 20.116 48.9112 19.996L49.0552 20.104V24.1ZM44.9512 13.984C44.9512 13.408 44.8552 12.916 44.6632 12.508C44.4952 12.076 44.1472 11.752 43.6192 11.536C43.0912 11.296 42.3112 11.176 41.2792 11.176C39.7672 11.176 38.7712 11.44 38.2912 11.968C37.8352 12.472 37.6072 13.144 37.6072 13.984H44.9512ZM63.4214 23.524C63.0134 22.228 62.5934 20.848 62.1614 19.384C61.7534 17.92 61.3454 16.468 60.9374 15.028C60.5294 13.588 60.1574 12.244 59.8214 10.996C59.4854 9.748 59.1974 8.668 58.9574 7.756C58.7174 6.844 58.5494 6.196 58.4534 5.812L58.3094 5.848C58.3814 6.28 58.4414 6.856 58.4894 7.576C58.5374 8.272 58.5734 9.016 58.5974 9.808C58.6214 10.576 58.6334 11.284 58.6334 11.932V24.676H53.1254V1.888H62.7734C63.1094 3.16 63.4574 4.504 63.8174 5.92C64.2014 7.312 64.5734 8.704 64.9334 10.096C65.3174 11.464 65.6534 12.772 65.9414 14.02C66.2294 15.244 66.4334 16.312 66.5534 17.224H66.6254C66.7454 16.312 66.9374 15.244 67.2014 14.02C67.4894 12.796 67.8134 11.488 68.1734 10.096C68.5334 8.704 68.9054 7.312 69.2894 5.92C69.6734 4.504 70.0214 3.16 70.3334 1.888H79.8374V24.676H74.4014V11.932C74.4014 11.284 74.4134 10.576 74.4374 9.808C74.4614 9.016 74.4974 8.272 74.5454 7.576C74.6174 6.856 74.6774 6.28 74.7254 5.848L74.5814 5.812C74.4854 6.196 74.3174 6.844 74.0774 7.756C73.8374 8.668 73.5374 9.76 73.1774 11.032C72.8414 12.28 72.4694 13.624 72.0614 15.064C71.6534 16.504 71.2334 17.956 70.8014 19.42C70.3934 20.86 69.9974 22.228 69.6134 23.524H63.4214ZM83.0113 16.036C83.0113 12.82 83.6953 10.504 85.0633 9.088C86.4313 7.672 88.7473 6.964 92.0113 6.964C94.1953 6.964 95.9473 7.276 97.2673 7.9C98.5873 8.524 99.5353 9.508 100.111 10.852C100.711 12.172 101.011 13.9 101.011 16.036C101.011 18.148 100.711 19.864 100.111 21.184C99.5353 22.504 98.5873 23.476 97.2673 24.1C95.9473 24.7 94.1953 25 92.0113 25C88.7473 25 86.4313 24.304 85.0633 22.912C83.6953 21.496 83.0113 19.204 83.0113 16.036ZM92.0113 20.068C93.4033 20.068 94.3393 19.768 94.8193 19.168C95.3233 18.544 95.5753 17.464 95.5753 15.928C95.5753 14.464 95.3233 13.42 94.8193 12.796C94.3393 12.148 93.4033 11.824 92.0113 11.824C90.6673 11.824 89.7313 12.148 89.2033 12.796C88.6993 13.42 88.4473 14.464 88.4473 15.928C88.4473 17.464 88.6993 18.544 89.2033 19.168C89.7313 19.768 90.6673 20.068 92.0113 20.068ZM109.824 24.676H104.064V0.447999H109.824V14.56H109.896L114.432 7.144H120.768V7.288L115.44 15.568V15.712L121.632 24.676H115.008L109.932 16.576L109.824 16.54V24.676ZM138.844 24.1C138.172 24.34 137.236 24.556 136.036 24.748C134.86 24.916 133.456 25 131.824 25C129.76 25 127.996 24.736 126.532 24.208C125.092 23.656 124 22.732 123.256 21.436C122.512 20.116 122.14 18.292 122.14 15.964C122.14 12.796 122.86 10.504 124.3 9.088C125.764 7.672 128.02 6.964 131.068 6.964C133.252 6.964 134.968 7.276 136.216 7.9C137.488 8.524 138.388 9.412 138.916 10.564C139.468 11.692 139.744 13.036 139.744 14.596C139.744 15.052 139.72 15.544 139.672 16.072C139.648 16.6 139.588 17.116 139.492 17.62L139.348 17.764H127.504C127.672 18.82 128.164 19.516 128.98 19.852C129.82 20.188 131.176 20.356 133.048 20.356C134.296 20.356 135.328 20.332 136.144 20.284C136.984 20.212 137.836 20.116 138.7 19.996L138.844 20.104V24.1ZM134.74 13.984C134.74 13.408 134.644 12.916 134.452 12.508C134.284 12.076 133.936 11.752 133.408 11.536C132.88 11.296 132.1 11.176 131.068 11.176C129.556 11.176 128.56 11.44 128.08 11.968C127.624 12.472 127.396 13.144 127.396 13.984H134.74Z" fill="#000FFF"/>
</svg>
