<svg width="95" height="95" viewBox="0 0 95 95" fill="none" xmlns="http://www.w3.org/2000/svg">
<circle cx="47.5" cy="47.5" r="47.5" fill="#000FFF"/>
<path d="M28.8096 34.5268C28.3056 35.1842 28.4299 36.1258 29.0873 36.6299C29.7447 37.1339 30.6863 37.0096 31.1904 36.3522L28.8096 34.5268ZM54.2755 28.0188L53.8292 29.4509L54.2755 28.0188ZM66.5385 56L77.5672 42.6446L60.4867 39.7711L66.5385 56ZM31.1904 36.3522C34.0009 32.6865 42.8638 26.0338 53.8292 29.4509L54.7217 26.5867C42.1236 22.6609 32.0679 30.2771 28.8096 34.5268L31.1904 36.3522ZM53.8292 29.4509C63.7281 32.5356 66.5 42.4055 66.5 47.3123H69.5C69.5 41.7802 66.4258 30.234 54.7217 26.5867L53.8292 29.4509Z" fill="white"/>
<path d="M65.2163 60.1473C65.7011 59.4755 65.5496 58.538 64.8778 58.0532C64.206 57.5684 63.2684 57.72 62.7837 58.3917L65.2163 60.1473ZM40.3634 66.9461L40.8348 65.5221L40.3634 66.9461ZM28.4231 38L17.5235 51.461L34.6308 54.1698L28.4231 38ZM62.7837 58.3917C61.453 60.2356 58.6128 62.9334 54.7506 64.7038C50.923 66.4583 46.1469 67.2808 40.8348 65.5221L39.8919 68.37C46.0516 70.4094 51.6165 69.4406 56.0007 67.4309C60.3502 65.4371 63.5924 62.3976 65.2163 60.1473L62.7837 58.3917ZM40.8348 65.5221C36.0261 63.93 32.9563 60.608 31.0673 56.9913C29.1642 53.3474 28.5 49.4704 28.5 46.9873H25.5C25.5 49.9036 26.2589 54.265 28.4081 58.3801C30.5716 62.5224 34.1834 66.4801 39.8919 68.37L40.8348 65.5221Z" fill="white"/>
<path d="M39.532 50.834C39.532 50.414 39.5647 50.036 39.63 49.7C39.6953 49.364 39.8073 49.0513 39.966 48.762C40.134 48.4727 40.358 48.202 40.638 47.95C40.9273 47.6887 41.2913 47.4367 41.73 47.194C42.1127 46.9887 42.4487 46.8113 42.738 46.662C43.0273 46.5033 43.27 46.3587 43.466 46.228C43.6713 46.0973 43.8253 45.9667 43.928 45.836C44.0307 45.696 44.082 45.5373 44.082 45.36C44.082 45.1733 44.0307 45.0053 43.928 44.856C43.8253 44.6973 43.6807 44.5713 43.494 44.478C43.3073 44.3847 43.074 44.338 42.794 44.338C42.57 44.338 42.36 44.366 42.164 44.422C41.9773 44.478 41.8 44.5573 41.632 44.66C41.4733 44.7627 41.324 44.8793 41.184 45.01C41.044 45.1313 40.918 45.262 40.806 45.402L39.616 44.03C39.7467 43.8993 39.9193 43.7593 40.134 43.61C40.358 43.4513 40.6193 43.3067 40.918 43.176C41.226 43.036 41.562 42.924 41.926 42.84C42.2993 42.7467 42.696 42.7 43.116 42.7C43.7507 42.7 44.292 42.8027 44.74 43.008C45.188 43.204 45.5287 43.4793 45.762 43.834C46.0047 44.1887 46.126 44.604 46.126 45.08C46.126 45.4067 46.0653 45.696 45.944 45.948C45.8227 46.2 45.6687 46.424 45.482 46.62C45.2953 46.8067 45.09 46.9747 44.866 47.124C44.6513 47.2733 44.4413 47.404 44.236 47.516C43.9467 47.6653 43.6853 47.8053 43.452 47.936C43.2187 48.0573 43.0133 48.1833 42.836 48.314C42.6587 48.4353 42.5 48.5613 42.36 48.692C42.2293 48.8227 42.1127 48.972 42.01 49.14H46.28V50.834H39.532ZM51.2703 52.612V50.526H47.1823V48.86L51.8723 42.84H53.1463V48.846H54.3783V50.526H53.1463V52.612H51.2703ZM49.0583 48.846H51.4803V45.682L49.0583 48.846Z" fill="white"/>
</svg>
